<svg width="44" height="46" viewBox="0 0 44 46" fill="none" xmlns="http://www.w3.org/2000/svg">
<g clip-path="url(#clip0_133:36)">
<path d="M43.3205 4.4923C42.7831 3.81675 41.9781 3.44482 41.0536 3.44482C40.551 3.44482 40.0186 3.5535 39.4714 3.76845L2.22627 18.381C0.249703 19.1563 -0.016502 20.3197 0.000618374 20.9441C0.0177387 21.5686 0.347725 22.7148 2.3639 23.3741C2.37598 23.3779 2.38807 23.3817 2.40015 23.3851L10.1258 25.6574L14.3038 37.9366C14.8735 39.6107 16.1522 40.6505 17.6413 40.6505C18.5802 40.6505 19.5037 40.2462 20.3121 39.4816L25.0907 34.9595L32.0217 40.6954C32.0224 40.6961 32.0234 40.6964 32.0241 40.6971L32.0899 40.7516C32.0959 40.7565 32.1023 40.7616 32.1083 40.7665C32.8788 41.3806 33.7197 41.7049 34.5411 41.7053H34.5415C36.1464 41.7053 37.4244 40.4842 37.7967 38.5949L43.8992 7.62472C44.1443 6.38162 43.9388 5.26928 43.3205 4.4923V4.4923ZM12.7103 25.2258L27.6154 17.3998L18.3345 27.5354C18.1824 27.7013 18.0747 27.9045 18.0216 28.1257L16.2321 35.576L12.7103 25.2258ZM18.5655 37.5323C18.5037 37.5906 18.4416 37.6427 18.3795 37.6906L20.0398 30.7792L23.0601 33.2789L18.5655 37.5323ZM41.3725 7.09857L35.2699 38.0691C35.2112 38.3655 35.0235 39.0552 34.5411 39.0552C34.3028 39.0552 34.0033 38.9217 33.6968 38.6791L25.843 32.1797C25.842 32.1786 25.8406 32.1776 25.8393 32.1769L21.1661 28.3092L34.5874 13.6518C35.0171 13.1826 35.0561 12.4639 34.6798 11.9485C34.3031 11.433 33.6206 11.2709 33.0624 11.5641L10.9879 23.1547L3.15714 20.852L40.3909 6.24396C40.7055 6.12044 40.925 6.09456 41.0536 6.09456C41.1325 6.09456 41.2728 6.10422 41.3248 6.17012C41.3933 6.25603 41.4806 6.54895 41.3725 7.09857V7.09857Z" fill="#2352DE"/>
</g>
<defs>
<clipPath id="clip0_133:36">
<rect width="44" height="45.2222" fill="white"/>
</clipPath>
</defs>
</svg>
