<svg width="23" height="23" viewBox="0 0 23 23" fill="none" xmlns="http://www.w3.org/2000/svg">
<g clip-path="url(#clip0_317_82)">
<path d="M21.4628 16.5887L18.2688 13.3933C17.8398 12.9665 17.2654 12.7314 16.6516 12.7314C16.0129 12.7314 15.4098 12.9829 14.9538 13.4392L13.7105 14.6822C12.7444 14.1452 11.4603 13.4066 10.1271 12.0735C8.79544 10.7414 8.05677 9.46105 7.51703 8.48972L8.76152 7.24613C9.68678 6.31895 9.70571 4.83146 8.80385 3.93043L5.61046 0.736948C5.18271 0.308006 4.60832 0.0717773 3.99297 0.0717773C3.36848 0.0717773 2.77773 0.312212 2.32438 0.749838C2.05012 0.970709 0.673792 2.18568 0.160835 4.69131C-0.557359 8.19845 1.09277 11.5728 5.85647 16.3385C11.178 21.6583 15.7209 22.0718 16.9865 22.0718C17.25 22.0718 17.409 22.0555 17.4514 22.0506C19.9332 21.7597 20.8218 20.6575 21.4706 19.8527C22.3113 18.8097 22.3083 17.4373 21.4628 16.5887ZM20.403 18.992C19.7931 19.7484 19.2172 20.4628 17.2919 20.6885C17.2909 20.6886 17.1855 20.7004 16.9865 20.7004C15.8542 20.7004 11.7749 20.3159 6.82617 15.3688C2.43317 10.974 0.89128 7.96012 1.50425 4.9663C1.95166 2.78082 3.13948 1.8519 3.18564 1.81662L3.2266 1.78636L3.26253 1.75034C3.46082 1.55223 3.72018 1.44307 3.99288 1.44307C4.24118 1.44307 4.47082 1.53614 4.64013 1.706L7.83425 4.90021C8.20176 5.26735 8.1822 5.88516 7.79119 6.27699L6.38379 7.68321L6.36066 7.70744C5.99388 8.11142 6.03703 8.65738 6.23907 9.01291C6.82205 10.065 7.6206 11.5058 9.15719 13.0429C10.6887 14.5743 12.1275 15.3723 13.1766 15.9541C13.2816 16.0131 13.4985 16.112 13.7699 16.112C14.0904 16.112 14.3847 15.9764 14.6026 15.7291L15.9234 14.4086C16.1206 14.2113 16.3791 14.1026 16.6515 14.1026C16.9003 14.1026 17.1311 14.196 17.3001 14.364L20.492 17.5573C20.8975 17.9642 20.7301 18.5863 20.403 18.992Z" fill="white"/>
<path d="M13.388 3.43156C14.5662 3.56714 15.9534 4.28076 16.922 5.24954C17.8998 6.22727 18.6151 7.62855 18.7443 8.81948C18.7824 9.17081 19.0795 9.43117 19.4251 9.43117C19.4498 9.43117 19.4748 9.4298 19.4999 9.42715C19.8764 9.38628 20.1484 9.04803 20.1076 8.67156C19.9442 7.16615 19.0951 5.48339 17.8917 4.27994C16.6996 3.08773 15.034 2.24073 13.5448 2.06931C13.1688 2.02571 12.8286 2.29594 12.7853 2.67204C12.742 3.04815 13.0117 3.38823 13.388 3.43156Z" fill="white"/>
<path d="M12.7476 6.30376C13.3847 6.37717 14.2666 6.84981 14.8443 7.42749C15.4269 8.0102 15.9004 8.90045 15.9702 9.5445C16.0083 9.89592 16.3054 10.1563 16.651 10.1563C16.6757 10.1563 16.7006 10.1549 16.7257 10.1523C17.1021 10.1114 17.3743 9.77314 17.3334 9.39667C17.2142 8.29708 16.4842 7.12827 15.8138 6.4578C15.1493 5.79327 13.992 5.06676 12.9043 4.94142C12.5278 4.89763 12.1881 5.16796 12.1447 5.54406C12.1015 5.92025 12.3714 6.26042 12.7476 6.30376Z" fill="white"/>
</g>
<defs>
<clipPath id="clip0_317_82">
<rect width="23" height="23" fill="white"/>
</clipPath>
</defs>
</svg>
