<svg width="92" height="80" fill="none" xmlns="http://www.w3.org/2000/svg"><path d="M45.92 31.21c8.604 0 15.605-7 15.605-15.605 0-8.604-7-15.605-15.606-15.605-8.604 0-15.605 7-15.605 15.605s7 15.606 15.605 15.606zm0-25.829c5.637 0 10.224 4.587 10.224 10.224 0 5.638-4.587 10.225-10.225 10.225-5.637 0-10.224-4.587-10.224-10.225 0-5.637 4.587-10.224 10.224-10.224zM77.489 31.21c5.44 0 9.865-4.425 9.865-9.865S82.93 11.48 77.49 11.48s-9.866 4.425-9.866 9.865 4.426 9.866 9.866 9.866zm0-14.35a4.49 4.49 0 014.484 4.485 4.49 4.49 0 01-4.484 4.485 4.49 4.49 0 01-4.485-4.485 4.49 4.49 0 014.485-4.484zm2.171 20.45h-4.162a12.197 12.197 0 00-11.066 7.058c-3.972-4.336-9.676-7.059-16.005-7.059h-5.015c-6.329 0-12.034 2.724-16.005 7.059a12.198 12.198 0 00-11.066-7.059h-4.162C5.464 37.31 0 42.74 0 49.415v19.59c0 2.897 2.367 5.255 5.276 5.255h16.453c.276 3.21 2.976 5.74 6.257 5.74h35.867c3.28 0 5.98-2.53 6.257-5.74h16.265c3.013 0 5.464-2.441 5.464-5.442V49.415c0-6.675-5.464-12.106-12.18-12.106zM5.38 49.414c0-3.708 3.05-6.724 6.798-6.724h4.162c3.748 0 6.798 3.016 6.798 6.724v1.843c-1.81 4.71-1.435 7.534-1.435 17.62H5.381V49.416zm59.372 24.303a.9.9 0 01-.9.9H27.986a.902.902 0 01-.9-.9v-14.7c0-9.003 7.323-16.328 16.326-16.328h5.014c9.003 0 16.327 7.325 16.327 16.327v14.701zm21.704-4.9c0 .093 1.003.06-16.323.06 0-10.16.372-12.917-1.435-17.62v-1.843c0-3.708 3.05-6.724 6.799-6.724h4.161c3.749 0 6.798 3.016 6.798 6.724v19.403zM14.35 31.21c5.44 0 9.865-4.425 9.865-9.865S19.79 11.48 14.35 11.48s-9.866 4.425-9.866 9.865 4.426 9.866 9.866 9.866zm0-14.35a4.49 4.49 0 014.484 4.485 4.49 4.49 0 01-4.484 4.485 4.49 4.49 0 01-4.484-4.485 4.49 4.49 0 014.484-4.484z" fill="#FFA657"/></svg>