<svg width="92" height="80" viewBox="0 0 92 80" fill="none" xmlns="http://www.w3.org/2000/svg">
<path d="M45.9193 31.2107C54.5242 31.2107 61.5247 24.2102 61.5247 15.6054C61.5247 7.00053 54.5242 0 45.9193 0C37.3145 0 30.314 7.00053 30.314 15.6054C30.314 24.2102 37.3145 31.2107 45.9193 31.2107ZM45.9193 5.38116C51.557 5.38116 56.1435 9.9677 56.1435 15.6054C56.1435 21.243 51.557 25.8296 45.9193 25.8296C40.2817 25.8296 35.6951 21.243 35.6951 15.6054C35.6951 9.9677 40.2817 5.38116 45.9193 5.38116Z" fill="#FFA657"/>
<path d="M77.4887 31.2106C82.9286 31.2106 87.3542 26.785 87.3542 21.3452C87.3542 15.9054 82.9286 11.4797 77.4887 11.4797C72.0489 11.4797 67.6233 15.9054 67.6233 21.3452C67.6233 26.785 72.0489 31.2106 77.4887 31.2106ZM77.4887 16.8609C79.9614 16.8609 81.973 18.8726 81.973 21.3452C81.973 23.8178 79.9614 25.8295 77.4887 25.8295C75.0161 25.8295 73.0044 23.8178 73.0044 21.3452C73.0044 18.8726 75.0161 16.8609 77.4887 16.8609Z" fill="#FFA657"/>
<path d="M79.6591 37.3093H75.4976C70.5938 37.3093 66.3606 40.2065 64.4317 44.368C60.4602 40.0325 54.7556 37.3093 48.4267 37.3093H43.412C37.083 37.3093 31.3784 40.0325 27.407 44.368C25.4778 40.2065 21.2446 37.3093 16.3408 37.3093H12.1794C5.46367 37.3093 0 42.74 0 49.4151V69.0043C0 71.9023 2.36663 74.2599 5.27569 74.2599H21.7289C22.0048 77.4707 24.7047 79.9998 27.986 79.9998H63.8526C67.1337 79.9998 69.8336 77.4707 70.1097 74.2599H86.3749C89.3877 74.2599 91.8386 71.8187 91.8386 68.8178V49.4151C91.8384 42.74 86.3748 37.3093 79.6591 37.3093V37.3093ZM5.38116 49.4151C5.38116 45.7072 8.43084 42.6905 12.1794 42.6905H16.3408C20.0893 42.6905 23.139 45.7072 23.139 49.4151V51.2575C21.3297 55.9685 21.704 58.7918 21.704 68.8788H5.38116V49.4151ZM64.7533 73.7181C64.7533 74.2147 64.3493 74.6187 63.8526 74.6187H27.9858C27.4891 74.6187 27.0852 74.2146 27.0852 73.7181V59.0173C27.0852 50.0146 34.4093 42.6905 43.4118 42.6905H48.4265C57.4291 42.6905 64.7533 50.0146 64.7533 59.0171V73.7181ZM86.4573 68.8178C86.4573 68.9105 87.4603 68.8788 70.1344 68.8788C70.1344 58.7172 70.5059 55.9608 68.6994 51.2575V49.4151C68.6994 45.7072 71.7491 42.6905 75.4976 42.6905H79.6591C83.4076 42.6905 86.4573 45.7072 86.4573 49.4151V68.8178Z" fill="#FFA657"/>
<path d="M14.3498 31.2106C19.7896 31.2106 24.2153 26.785 24.2153 21.3452C24.2153 15.9054 19.7896 11.4797 14.3498 11.4797C8.91002 11.4797 4.48438 15.9054 4.48438 21.3452C4.48438 26.785 8.91002 31.2106 14.3498 31.2106ZM14.3498 16.8609C16.8225 16.8609 18.8341 18.8726 18.8341 21.3452C18.8341 23.8178 16.8225 25.8295 14.3498 25.8295C11.8772 25.8295 9.86553 23.8178 9.86553 21.3452C9.86553 18.8726 11.8772 16.8609 14.3498 16.8609Z" fill="#FFA657"/>
</svg>
